<svg width="198" height="38" viewBox="0 0 198 38" fill="none" xmlns="http://www.w3.org/2000/svg">
<path d="M194.182 21.4292C193.792 21.2092 193.372 21.0292 192.942 20.8892C191.842 20.5392 190.672 20.4492 189.522 20.6392C189.022 20.7192 188.522 20.8492 188.042 21.0192L187.892 21.0692C187.622 21.1692 187.362 21.2892 187.112 21.4192C186.892 21.5392 186.672 21.6592 186.442 21.7892C185.922 22.0992 185.432 22.4392 184.952 22.8092C184.572 20.1792 184.522 17.5192 184.802 14.8692C184.802 14.8592 184.812 14.8592 184.812 14.8592H184.822C186.002 15.5992 185.672 17.6692 185.422 18.2692C185.422 18.2792 185.422 18.2792 185.432 18.2792H185.442C186.442 17.1292 186.612 15.4792 185.892 14.1492C185.882 14.1392 185.902 14.1292 185.912 14.1392C186.112 14.2992 186.292 14.4792 186.442 14.6792C186.832 15.1892 187.062 15.7992 187.112 16.4392C187.132 16.6992 187.132 16.9692 187.112 17.2392C187.112 17.2992 187.102 17.3592 187.102 17.4192C187.102 17.4292 187.112 17.4292 187.112 17.4292H187.122C187.622 16.4592 187.612 15.2992 187.112 14.3292C186.932 13.9992 186.712 13.6892 186.442 13.4192C186.352 13.3292 186.262 13.2492 186.182 13.1692C186.172 13.1592 186.182 13.1492 186.192 13.1492C186.282 13.1692 186.372 13.1992 186.452 13.2292C186.692 13.3092 186.912 13.4292 187.122 13.5792C187.542 13.8992 187.872 14.3292 188.052 14.8292C188.192 15.1892 188.262 15.5792 188.262 15.9692C188.262 15.9792 188.272 15.9792 188.272 15.9792C188.282 15.9792 188.282 15.9692 188.282 15.9692C188.542 15.1892 188.452 14.3392 188.042 13.6292C187.812 13.2592 187.492 12.9492 187.112 12.7292C186.902 12.5992 186.682 12.4992 186.442 12.4292C186.342 12.3992 186.232 12.3692 186.122 12.3592C186.112 12.3592 186.112 12.3392 186.122 12.3392C186.232 12.3292 186.332 12.3192 186.442 12.3192C186.662 12.3092 186.892 12.3292 187.112 12.3692C187.442 12.4292 187.762 12.5492 188.042 12.7392C188.302 12.9092 188.512 13.1392 188.662 13.4092C188.662 13.4192 188.682 13.4092 188.682 13.3992C188.642 12.9092 188.402 12.4592 188.032 12.1492C187.762 11.9192 187.442 11.7492 187.102 11.6592C186.882 11.5992 186.662 11.5692 186.432 11.5592C186.142 11.5492 185.862 11.5992 185.602 11.7092C185.592 11.7092 185.592 11.7092 185.592 11.6992V11.6892C185.802 11.3992 186.092 11.1892 186.442 11.0892C186.662 11.0192 186.882 10.9992 187.112 11.0092C187.302 11.0192 187.482 11.0592 187.662 11.1392C187.672 11.1492 187.682 11.1292 187.672 11.1192C187.512 10.9392 187.322 10.7792 187.112 10.6692C186.902 10.5492 186.682 10.4792 186.442 10.4492C185.802 10.3792 185.172 10.6892 184.832 11.2492C184.832 11.2492 184.822 11.2492 184.812 11.2492C184.732 11.0992 184.652 10.9492 184.592 10.7992C184.422 10.4092 184.302 9.99917 184.232 9.58917C184.232 9.57917 184.232 9.57922 184.222 9.57922C184.212 9.57922 184.212 9.57917 184.212 9.58917C184.142 10.0092 184.012 10.4192 183.842 10.8092C183.772 10.9592 183.702 11.1092 183.622 11.2592H183.612C183.112 10.4492 182.052 10.2092 181.242 10.7092C181.062 10.8192 180.902 10.9692 180.772 11.1392C180.772 11.1392 180.772 11.1492 180.772 11.1592H180.782C181.512 10.8592 182.362 11.0792 182.842 11.7092C182.842 11.7092 182.842 11.7192 182.842 11.7292H182.832C181.902 11.3892 180.862 11.6492 180.192 12.3792C179.942 12.6692 179.792 13.0292 179.762 13.4192C179.762 13.4292 179.782 13.4392 179.782 13.4292C179.892 13.2392 180.022 13.0692 180.192 12.9292C180.792 12.4492 181.562 12.2392 182.322 12.3592C182.332 12.3592 182.332 12.3692 182.332 12.3692L182.322 12.3792C181.362 12.5392 180.562 13.1892 180.192 14.0792C179.982 14.6992 179.972 15.3592 180.172 15.9792C180.172 15.9892 180.182 15.9892 180.182 15.9892C180.192 15.9892 180.192 15.9892 180.192 15.9792V15.9292C180.172 14.6392 181.022 13.4992 182.262 13.1592C182.272 13.1592 182.272 13.1592 182.272 13.1692V13.1792C180.982 14.1992 180.592 15.9792 181.332 17.4392C181.332 17.4492 181.342 17.4492 181.342 17.4492C181.352 17.4492 181.352 17.4392 181.352 17.4392C181.142 16.2192 181.592 14.9692 182.532 14.1692C182.542 14.1592 182.562 14.1692 182.552 14.1792C181.822 15.5192 182.002 17.1592 183.002 18.3092C183.012 18.3192 183.032 18.3092 183.022 18.2992C182.772 17.7092 182.442 15.6392 183.622 14.8892C183.622 14.8892 183.632 14.8892 183.642 14.8892V14.8992C183.922 17.5392 183.872 20.2092 183.492 22.8392C182.602 22.1192 181.612 21.5392 180.552 21.0992C180.432 21.0592 180.312 21.0092 180.192 20.9692C179.302 20.6692 178.362 20.5392 177.422 20.5792C176.432 20.6192 175.452 20.8692 174.562 21.2992C174.452 21.3592 174.352 21.4092 174.282 21.4492C174.272 21.4592 174.262 21.4692 174.272 21.4892C174.282 21.4992 174.292 21.5092 174.312 21.4992L174.572 21.4292C175.502 21.1592 176.472 21.0692 177.432 21.1492C178.392 21.2392 179.332 21.4892 180.202 21.8992C181.392 22.4592 182.502 23.1892 183.502 24.0492C182.462 25.0592 181.352 25.9992 180.202 26.8692C180.162 26.8892 180.132 26.9092 180.092 26.9292C179.842 26.5792 179.352 26.5092 179.012 26.7592C178.862 26.8692 178.762 27.0192 178.712 27.1992C178.652 27.4292 178.712 27.6792 178.862 27.8692C179.212 28.2292 179.752 28.3092 180.192 28.0692C181.152 27.6592 182.372 26.3792 183.852 25.0292C183.972 24.9192 184.102 24.7992 184.232 24.6892C184.362 24.7992 184.482 24.9192 184.602 25.0292C185.272 25.6392 185.892 26.2392 186.452 26.7492C186.682 26.9592 186.902 27.1492 187.122 27.3292C187.412 27.5692 187.722 27.7892 188.052 27.9692C188.492 28.2992 189.102 28.2792 189.532 27.9392C189.552 27.9192 189.582 27.8992 189.602 27.8792C189.742 27.6892 189.792 27.4492 189.752 27.2092C189.682 26.9292 189.462 26.7092 189.172 26.6392C188.872 26.5692 188.552 26.6892 188.372 26.9392C188.262 26.8792 188.152 26.8192 188.052 26.7492C187.732 26.5192 187.422 26.2692 187.122 25.9992C186.912 25.8192 186.692 25.6192 186.452 25.3992C185.992 24.9892 185.492 24.5192 184.962 24.0592C185.432 23.6692 185.932 23.2792 186.452 22.9292C186.672 22.7792 186.892 22.6392 187.122 22.5092C187.422 22.3292 187.732 22.1592 188.052 22.0092C188.532 21.7792 189.022 21.5892 189.532 21.4392C190.642 21.1192 191.802 21.0492 192.942 21.2292C193.352 21.2992 193.762 21.3892 194.162 21.5192C194.172 21.5292 194.192 21.5192 194.202 21.5092C194.202 21.4492 194.192 21.4292 194.182 21.4292ZM196.152 37.5492H172.322V0.179199H196.152V37.5492Z" fill="#3D0177"/>
<path d="M20.7421 14.7291C20.7521 14.9291 20.682 15.1291 20.532 15.2791C20.382 15.4191 20.172 15.4891 19.972 15.4791H16.7621C15.7921 15.4791 15.312 14.9691 15.302 13.9591V13.8991C15.182 13.1591 15.692 12.4591 16.432 12.3391C16.542 12.3191 16.662 12.3192 16.772 12.3292L17.3821 12.3192H18.7621V10.9492L16.7621 10.9391C15.9821 10.9291 15.232 11.2391 14.702 11.7991C14.132 12.3591 13.822 13.1291 13.832 13.9291C13.822 14.4791 13.982 15.0191 14.272 15.4791H10.8521V7.96912L10.832 7.63916C10.102 7.61916 9.55201 7.61916 9.18201 7.63916V15.4791H7.672L7.31201 13.1992C7.26201 12.8892 7.20206 12.4891 7.11206 11.9891C7.02206 11.4891 6.97202 11.1491 6.94202 10.9591H5.26208L5.97205 15.4791H3.58203V16.7991H20.1021C21.6521 16.7991 22.432 16.0491 22.432 14.5591V7.63916H20.7321L20.7421 14.7291ZM23.912 7.60913H25.582V16.7991H23.912V7.60913ZM31.3621 9.69916C31.9621 9.69916 32.2621 9.40915 32.2621 8.81915C32.3121 8.38915 32.002 7.99915 31.572 7.93915C31.502 7.92915 31.4221 7.92916 31.3521 7.94916C30.8721 7.95916 30.4821 8.34911 30.4821 8.83911C30.4821 9.32911 30.8821 9.70916 31.3621 9.69916ZM33.682 9.69916C34.282 9.69916 34.582 9.40915 34.582 8.81915C34.632 8.38915 34.322 7.99915 33.892 7.93915C33.822 7.92915 33.742 7.92916 33.672 7.94916C33.192 7.95916 32.802 8.34911 32.802 8.83911C32.802 9.32911 33.192 9.70916 33.682 9.69916ZM43.0021 9.69916C43.6021 9.69916 43.902 9.40915 43.902 8.81915C43.952 8.38915 43.642 7.99915 43.212 7.93915C43.142 7.92915 43.0621 7.92916 42.9921 7.94916C42.5121 7.95916 42.1221 8.34911 42.1221 8.83911C42.1221 9.32911 42.5121 9.70916 43.0021 9.69916ZM54.1121 9.69916C54.7121 9.69916 55.0121 9.40915 55.0121 8.81915C55.0621 8.38915 54.752 7.99915 54.322 7.93915C54.252 7.92915 54.1721 7.92916 54.1021 7.94916C53.6221 7.95916 53.2321 8.34911 53.2321 8.83911C53.2321 9.32911 53.6321 9.70916 54.1121 9.69916ZM55.162 12.3091L55.172 12.4891L55.162 15.4791H53.672C52.702 15.4791 52.212 14.9791 52.212 13.9691V13.8991C52.092 13.1591 52.602 12.4591 53.342 12.3391C53.452 12.3191 53.572 12.3192 53.692 12.3292L54.302 12.3192L55.162 12.3091ZM39.592 15.4691C39.582 14.9491 39.612 14.4191 39.672 13.8991C39.812 13.2291 40.3221 12.7091 40.9821 12.5391C41.2121 12.4791 41.442 12.4592 41.682 12.4492C42.042 12.4392 42.4821 12.4291 42.9921 12.4291C43.5021 12.4291 43.942 12.4392 44.302 12.4492C44.542 12.4492 44.7721 12.4791 45.0021 12.5391C45.6621 12.6991 46.172 13.2291 46.302 13.8991C46.372 14.4191 46.402 14.9391 46.392 15.4691H39.592ZM32.082 15.4691C31.112 15.4691 30.6221 14.9592 30.6221 13.9492V13.8792C30.5021 13.1392 31.0121 12.4392 31.7521 12.3192C31.8621 12.2992 31.9821 12.2991 32.1021 12.3091L32.712 12.2991H33.562L33.572 15.4691H32.082ZM51.6321 11.7891C51.0621 12.3491 50.7521 13.1191 50.7621 13.9191C50.7521 14.4691 50.912 15.0091 51.202 15.4691H47.772V15.1992C47.812 14.4192 47.7221 13.6292 47.5121 12.8792C47.1721 11.8492 46.252 11.1291 45.182 11.0191C44.692 10.9591 44.192 10.9292 43.702 10.9492H42.302C41.802 10.9392 41.312 10.9691 40.822 11.0191C40.372 11.0691 39.932 11.2291 39.552 11.4791V7.59912H37.8621V15.4691H35.052V10.9391L32.1221 10.9191C31.3421 10.9091 30.592 11.2191 30.062 11.7791C29.492 12.3391 29.172 13.1091 29.192 13.9091C29.202 15.8391 30.1721 16.7991 32.1221 16.7991H56.652V10.9391L53.722 10.9291C52.932 10.9191 52.1821 11.2291 51.6321 11.7891ZM72.3721 15.7391C71.6221 15.7391 71.2521 15.1591 71.2521 13.9891C71.2521 12.8191 71.6221 12.2391 72.3721 12.2391C73.1221 12.2391 73.4921 12.8191 73.4921 13.9891C73.4921 15.1591 73.1221 15.7391 72.3721 15.7391ZM78.052 14.7291C78.062 14.9291 77.992 15.1291 77.842 15.2791C77.692 15.4191 77.492 15.4891 77.282 15.4791H76.712C76.322 15.4791 76.022 15.4692 75.782 15.4492C75.482 15.4192 75.242 15.1991 75.172 14.9091C75.252 14.6191 75.302 14.3091 75.302 13.9991C75.312 13.1991 75.002 12.4291 74.442 11.8591C73.352 10.7091 71.542 10.6692 70.392 11.7592C70.362 11.7892 70.322 11.8191 70.292 11.8591C69.732 12.4291 69.422 13.1991 69.432 13.9991C69.432 14.2891 69.472 14.5891 69.552 14.8691C69.482 15.1791 69.232 15.4092 68.922 15.4492C68.612 15.4792 68.3021 15.4891 68.0021 15.4791H66.692V15.1992C66.732 14.4192 66.642 13.6392 66.442 12.8792C66.102 11.8492 65.1821 11.1191 64.1021 11.0191C63.6121 10.9691 63.1121 10.9491 62.6221 10.9591H61.6121V12.4291C61.7121 12.4391 61.822 12.4391 61.922 12.4391C62.082 12.4391 62.252 12.4391 62.452 12.4391L62.932 12.4492C63.052 12.4492 63.1521 12.4591 63.2421 12.4591C63.4821 12.4591 63.712 12.4891 63.942 12.5491C64.612 12.7091 65.1221 13.2491 65.2521 13.9191C65.3221 14.4391 65.342 14.9591 65.312 15.4891H59.392V7.65912H57.702V16.8292H68.7421C69.2721 16.8492 69.792 16.6391 70.162 16.2491L70.312 16.1491L70.2521 16.0792C71.2921 17.2692 73.102 17.3791 74.292 16.3391C74.362 16.2791 74.4221 16.2191 74.4821 16.1591L74.6221 16.2592C74.9921 16.6492 75.512 16.8591 76.042 16.8391H77.452C79.002 16.8391 79.772 16.0891 79.782 14.5991V7.66913H78.082L78.052 14.7291ZM84.652 8.82916C84.672 9.31916 85.092 9.69913 85.582 9.66913C86.042 9.64913 86.412 9.27915 86.422 8.81915C86.472 8.38915 86.1621 7.98915 85.7321 7.93915C85.6521 7.92915 85.5821 7.92916 85.5021 7.94916C85.0721 7.89916 84.692 8.20915 84.642 8.62915C84.642 8.69915 84.642 8.75916 84.652 8.82916ZM86.962 8.81915C86.982 9.30915 87.3921 9.68914 87.8821 9.67914C88.3521 9.65914 88.7221 9.27915 88.7421 8.81915C88.7921 8.38915 88.482 7.99915 88.052 7.93915C87.572 7.89915 87.132 8.18915 86.962 8.62915C86.952 8.69915 86.952 8.75915 86.962 8.81915ZM91.562 17.9691C91.082 17.9891 90.702 18.3992 90.722 18.8792C90.742 19.3592 91.1521 19.7391 91.6321 19.7191C92.1021 19.6991 92.472 19.3091 92.472 18.8391C92.522 18.4091 92.212 18.0191 91.782 17.9591C91.712 17.9591 91.632 17.9591 91.562 17.9691ZM93.8721 17.9691C93.3921 17.9791 93.0021 18.3691 93.0021 18.8591C93.0121 19.3391 93.402 19.7291 93.892 19.7291C94.492 19.7291 94.792 19.4391 94.792 18.8491C94.842 18.4191 94.5321 18.0191 94.1021 17.9691C94.0321 17.9591 93.9521 17.9691 93.8721 17.9691ZM116.052 15.7391C115.302 15.7391 114.932 15.1591 114.932 13.9891C114.932 12.8191 115.302 12.2391 116.052 12.2391C116.802 12.2391 117.172 12.8191 117.172 13.9891C117.172 15.1591 116.802 15.7391 116.052 15.7391ZM86.2421 15.4691C85.2721 15.4691 84.782 14.9592 84.782 13.9492V13.8792C84.662 13.1392 85.162 12.4392 85.902 12.3192C86.022 12.2992 86.1321 12.2991 86.2521 12.3091L86.8621 12.2991H87.712L87.722 15.4691H86.2421ZM121.102 16.7991C122.652 16.7991 123.422 16.0491 123.432 14.5591V7.63916H121.732V14.7291C121.742 14.9291 121.672 15.1291 121.532 15.2791C121.382 15.4191 121.172 15.4891 120.972 15.4791H120.402C120.012 15.4791 119.702 15.4692 119.482 15.4492C119.182 15.4092 118.942 15.1991 118.872 14.9091C118.962 14.6191 119.002 14.3091 119.002 13.9991C119.012 13.1991 118.702 12.4291 118.142 11.8591C117.052 10.7091 115.242 10.6692 114.092 11.7592C114.062 11.7892 114.022 11.8191 113.992 11.8591C113.432 12.4291 113.122 13.1991 113.132 13.9991C113.132 14.2891 113.172 14.5891 113.252 14.8691C113.182 15.1791 112.932 15.4092 112.622 15.4492C112.312 15.4792 112.002 15.4891 111.702 15.4791H110.372V7.64911H108.682V15.4791H105.642V14.3792C105.642 13.8992 105.562 13.4091 105.412 12.9591C105.082 11.8291 104.062 11.0391 102.892 10.9991C102.822 10.9991 102.762 10.9891 102.692 10.9891L102.432 10.9691V10.9591H97.7621C97.7521 10.5791 97.772 10.1992 97.812 9.81915C97.852 9.53915 98.062 9.32912 98.342 9.28912C98.502 9.25912 98.672 9.23914 98.832 9.23914H102.422V7.62915L102.112 7.60913H98.642C98.412 7.60913 98.192 7.62914 97.972 7.67914C97.202 7.84914 96.602 8.45914 96.472 9.23914C96.432 9.45914 96.402 9.68913 96.412 9.91913L96.402 12.5191C97.092 12.5191 97.772 12.5191 98.462 12.5291C99.032 12.5391 99.7021 12.5391 100.502 12.5391H100.602L101.362 12.5591H101.452L101.462 12.5692H101.872L101.882 12.5792H102.092C102.322 12.5792 102.542 12.6091 102.762 12.6491C103.492 12.7891 104.072 13.3691 104.202 14.1091C104.252 14.3091 104.282 14.5191 104.282 14.7391V15.1691L104.262 15.4791H93.692V10.9391H92.0021V15.4691H89.222V10.9391L86.292 10.9191C85.512 10.9091 84.7621 11.2191 84.2321 11.7791C83.6621 12.3391 83.3421 13.1091 83.3621 13.9091C83.3721 15.8391 84.342 16.7991 86.292 16.7991H112.412C112.942 16.8191 113.462 16.6091 113.832 16.2191L113.982 16.1191L113.922 16.0491C114.962 17.2391 116.772 17.3491 117.962 16.3091C118.032 16.2491 118.092 16.1892 118.152 16.1292L118.292 16.2291C118.662 16.6191 119.182 16.8291 119.712 16.8091L121.102 16.7991ZM124.892 7.60913H126.562V16.7991H124.892V7.60913ZM131.472 8.82916C131.412 9.24916 131.712 9.63916 132.132 9.69916C132.202 9.70916 132.272 9.70916 132.342 9.69916C132.942 9.69916 133.242 9.40915 133.242 8.81915C133.292 8.38915 132.982 7.99915 132.552 7.93915C132.122 7.78915 131.652 8.01916 131.512 8.44916C131.462 8.56916 131.452 8.69916 131.472 8.82916ZM133.782 8.82916C133.802 9.31916 134.212 9.69915 134.702 9.68915C135.172 9.66915 135.542 9.28916 135.562 8.82916C135.612 8.39916 135.302 7.99916 134.872 7.94916C134.792 7.93916 134.722 7.93911 134.642 7.95911C134.212 7.90911 133.832 8.21911 133.782 8.64911C133.772 8.69911 133.772 8.75916 133.782 8.82916ZM138.792 9.82916H140.652V9.2691L139.882 9.25916C139.752 9.27916 139.632 9.17913 139.612 9.04913V9.02911L139.622 8.84912C139.632 8.67912 139.772 8.54913 139.942 8.54913C140.062 8.53913 140.182 8.53914 140.302 8.55914L140.412 8.56915V8.11914C140.202 8.01914 139.962 7.99914 139.742 8.05914C139.322 8.08914 138.992 8.45915 139.022 8.87915C139.032 8.95915 139.042 9.03914 139.082 9.11914L139.112 9.2691H138.802L138.792 9.82916ZM142.252 18.8491C142.192 19.2691 142.492 19.6591 142.912 19.7191C142.982 19.7291 143.062 19.7291 143.132 19.7191C143.732 19.7191 144.032 19.4291 144.032 18.8391C144.082 18.4091 143.772 18.0191 143.342 17.9591C143.262 17.9491 143.192 17.9491 143.112 17.9691C142.682 17.9191 142.302 18.2291 142.252 18.6591C142.242 18.7291 142.242 18.7891 142.252 18.8491ZM144.562 18.8491C144.582 19.3391 144.992 19.7191 145.482 19.7091C145.952 19.6891 146.322 19.3091 146.342 18.8491C146.392 18.4191 146.082 18.0291 145.652 17.9691C145.582 17.9591 145.502 17.9591 145.422 17.9791C144.992 17.9291 144.612 18.2391 144.562 18.6691C144.552 18.7191 144.552 18.7891 144.562 18.8491ZM133.062 15.4691C132.092 15.4691 131.602 14.9592 131.602 13.9492V13.8792C131.482 13.1392 131.992 12.4392 132.732 12.3192C132.852 12.2992 132.962 12.2991 133.082 12.3091L133.692 12.2991H134.542L134.552 15.4691H133.062ZM150.412 13.8091C150.832 13.7391 151.232 14.0292 151.292 14.4492C151.302 14.5192 151.302 14.5991 151.292 14.6691C151.302 15.0191 151.092 15.3491 150.762 15.4691H150.052C149.722 15.3491 149.502 15.0291 149.522 14.6691C149.472 14.2491 149.762 13.8591 150.192 13.8091C150.262 13.7891 150.332 13.7891 150.412 13.8091ZM151.332 12.5891C151.572 12.5891 151.812 12.6191 152.042 12.6791C152.702 12.8491 153.212 13.3791 153.342 14.0491C153.412 14.5191 153.442 14.9891 153.432 15.4591H152.452C152.552 15.2091 152.612 14.9391 152.612 14.6591C152.702 13.5891 151.902 12.6592 150.842 12.5692C151.092 12.5792 151.262 12.5791 151.332 12.5891ZM141.032 16.7991H157.212C158.762 16.7991 159.542 16.0491 159.532 14.5591V7.63916H157.832V14.7291C157.842 14.9291 157.772 15.1291 157.632 15.2791C157.482 15.4191 157.272 15.4891 157.072 15.4791H156.132L154.802 15.4891V15.1992C154.842 14.4192 154.752 13.6392 154.552 12.8792C154.212 11.8492 153.292 11.1192 152.212 11.0092C151.722 10.9592 151.222 10.9392 150.732 10.9492H149.722V12.5692L150.042 12.5792C148.982 12.6292 148.162 13.5391 148.212 14.5991C148.212 14.6191 148.212 14.6491 148.222 14.6691C148.222 14.9491 148.272 15.2191 148.382 15.4791H145.212V10.9391H143.522V15.4691H140.542V10.9391H138.852V15.4691H136.012V10.9391L133.082 10.9191C132.302 10.9091 131.552 11.2191 131.022 11.7791C130.452 12.3391 130.132 13.1091 130.152 13.9091C130.162 15.8391 131.132 16.7991 133.082 16.7991H141.032ZM161.012 7.60913H162.682V16.7991H161.012V7.60913ZM7.552 25.5291H5.38208V27.7891H7.552C7.982 27.8291 8.41199 27.7391 8.79199 27.5491C9.05199 27.3291 9.18197 26.9891 9.14197 26.6491C9.17197 26.3791 9.10203 26.1192 8.95203 25.8892C8.55203 25.5892 8.052 25.4591 7.552 25.5291ZM5.39197 32.8391H3.62207V23.9291H7.97205C8.77205 23.8591 9.56203 24.0891 10.202 24.5591C10.732 25.1091 10.992 25.8591 10.922 26.6191C10.922 27.9991 10.3621 28.8291 9.23206 29.1091L11.302 32.8391H9.32202L7.45203 29.3591H5.37207L5.39197 32.8391ZM14.9821 31.5692C15.3621 31.5792 15.7321 31.4391 16.0121 31.1891C16.4221 30.7691 16.622 30.1891 16.572 29.5991C16.602 29.0591 16.4421 28.5291 16.1121 28.0991C15.8421 27.7791 15.4321 27.5991 15.0121 27.6191C14.5721 27.6091 14.1421 27.7992 13.8621 28.1392C13.2721 29.0092 13.2621 30.1591 13.8521 31.0291C14.1221 31.3691 14.5421 31.5692 14.9821 31.5692ZM15.0021 32.9791C14.0021 33.0491 13.032 32.6192 12.412 31.8292C11.942 31.1792 11.692 30.3792 11.722 29.5692C11.692 28.7392 11.9621 27.9291 12.4821 27.2791C13.1021 26.5291 14.0321 26.1191 15.0021 26.1791C15.8221 26.1491 16.6221 26.4391 17.2421 26.9891C17.9521 27.6591 18.332 28.6092 18.272 29.5792C18.302 30.4592 18.002 31.3291 17.422 31.9991C16.802 32.6591 15.9221 33.0191 15.0021 32.9791ZM21.802 31.4191H23.1221V26.3192H24.7521V32.6791C24.7521 34.3591 23.982 35.1991 22.442 35.1891H19.2321V33.8591H22.142C22.622 33.9191 23.0721 33.5791 23.1321 33.0891C23.1421 33.0091 23.1421 32.9191 23.1321 32.8391H21.692C21.012 32.8991 20.332 32.6991 19.782 32.2891C19.302 31.7591 19.072 31.0491 19.142 30.3391V26.2991H20.7321V30.1891C20.7021 30.4891 20.7621 30.7891 20.8821 31.0591C21.1021 31.3291 21.452 31.4691 21.802 31.4191ZM28.402 31.5391H30.442V30.1791H28.522C27.872 30.1791 27.542 30.4091 27.542 30.8591C27.502 31.0891 27.612 31.3191 27.802 31.4391C27.992 31.5191 28.202 31.5591 28.402 31.5391ZM28.962 27.6591H26.2321V26.3091H29.572C31.262 26.3091 32.1121 27.1191 32.1121 28.7491V32.8391H27.7421C26.7621 32.9191 25.892 32.1792 25.822 31.1992C25.812 31.0992 25.812 31.0091 25.822 30.9091C25.752 30.2591 26.032 29.6191 26.562 29.2391C27.092 28.9591 27.702 28.8392 28.302 28.8792H30.462C30.502 28.5292 30.382 28.1891 30.142 27.9291C29.772 27.7191 29.362 27.6291 28.962 27.6591ZM33.402 23.9291H35.092V32.8391H33.402V23.9291ZM46.782 23.9291V25.4492H43.8721C43.2921 25.4092 42.7321 25.6491 42.3721 26.1091C41.9221 26.8891 41.722 27.7891 41.802 28.6891C41.702 29.4691 41.912 30.2591 42.392 30.8991C42.822 31.2091 43.3521 31.3491 43.8821 31.2991H46.792V32.8491H43.812C41.182 32.8491 39.8721 31.4191 39.8721 28.5591C39.7921 27.3891 40.092 26.2191 40.712 25.2291C41.482 24.3091 42.6621 23.8291 43.8521 23.9391L46.782 23.9291ZM50.642 31.5692C51.022 31.5792 51.392 31.4391 51.672 31.1891C52.082 30.7691 52.2821 30.1891 52.2421 29.5991C52.2721 29.0591 52.112 28.5291 51.782 28.0991C51.502 27.7791 51.102 27.5991 50.682 27.6191C50.242 27.6091 49.812 27.7992 49.532 28.1392C48.942 29.0092 48.942 30.1591 49.522 31.0291C49.792 31.3791 50.202 31.5792 50.642 31.5692ZM50.662 32.9791C49.662 33.0491 48.692 32.6192 48.072 31.8292C47.592 31.1792 47.3521 30.3792 47.3821 29.5692C47.3521 28.7392 47.622 27.9291 48.142 27.2791C48.762 26.5291 49.692 26.1191 50.662 26.1791C51.482 26.1491 52.282 26.4391 52.902 26.9891C53.612 27.6591 53.992 28.6092 53.932 29.5792C53.972 30.4592 53.662 31.3291 53.092 31.9991C52.472 32.6591 51.582 33.0291 50.662 32.9791ZM56.462 32.8491H54.842V26.3192H61.092C61.762 26.2592 62.4421 26.4491 62.9921 26.8391C63.4821 27.3291 63.732 28.0191 63.662 28.7091V32.8491H62.052V28.9291C62.082 28.6191 62.0221 28.3091 61.8721 28.0391C61.6521 27.7991 61.3221 27.6891 61.0021 27.7291C60.8721 27.7291 60.7321 27.7392 60.6021 27.7592H60.312C60.232 27.7592 60.152 27.7591 60.082 27.7691V32.8491H58.402V27.7691H56.4821L56.462 32.8491ZM66.6221 32.8491H65.0021V26.3192H71.2521C71.9221 26.2592 72.602 26.4491 73.152 26.8391C73.642 27.3291 73.892 28.0191 73.822 28.7091V32.8491H72.192V28.9291C72.222 28.6191 72.1621 28.3091 72.0121 28.0391C71.7921 27.7991 71.462 27.6891 71.142 27.7291C71.012 27.7291 70.8721 27.7392 70.7421 27.7592H70.452C70.372 27.7592 70.292 27.7591 70.222 27.7691V32.8491H68.542V27.7691H66.6121L66.6221 32.8491ZM75.162 26.3192H76.8521V32.8491H75.162V26.3192ZM75.162 23.9391H76.8521V25.5591H75.162V23.9391ZM82.2521 32.8491H78.082V31.4991H81.522C82.102 31.4991 82.392 31.2791 82.392 30.8391C82.392 30.4191 82.102 30.2091 81.522 30.2091H80.1021C79.5821 30.2491 79.052 30.1591 78.582 29.9391C78.122 29.5691 77.892 28.9891 77.972 28.3991C77.972 27.0091 78.702 26.3192 80.152 26.3192H83.642V27.6691H80.7621C80.4821 27.6491 80.192 27.6891 79.932 27.7791C79.732 27.8791 79.622 28.0891 79.652 28.3091C79.652 28.6691 79.912 28.8591 80.422 28.8591H81.912C83.262 28.8591 83.952 29.4691 83.972 30.6891C84.002 31.2391 83.8421 31.7891 83.5121 32.2291C83.2121 32.6291 82.7521 32.8591 82.2521 32.8491ZM89.1121 32.8391H84.922V31.4891H88.3521C88.9321 31.4891 89.222 31.2692 89.222 30.8292C89.222 30.4092 88.9321 30.1992 88.3521 30.1992H86.932C86.412 30.2392 85.882 30.1491 85.412 29.9291C84.952 29.5591 84.722 28.9792 84.802 28.3892C84.802 26.9992 85.5321 26.3091 86.9821 26.3091H90.472V27.6591H87.592C87.312 27.6391 87.0221 27.6791 86.7621 27.7691C86.5721 27.8691 86.4521 28.0891 86.4821 28.2991C86.4821 28.6591 86.7421 28.8391 87.2521 28.8491H88.7421C90.0921 28.8491 90.782 29.4591 90.802 30.6791C90.832 31.2291 90.672 31.7791 90.342 32.2191C90.062 32.6291 89.6021 32.8491 89.1121 32.8391ZM91.8721 26.3091H93.562V32.8391H91.8721V26.3091ZM91.8721 23.9391H93.562V25.5591H91.8721V23.9391ZM97.702 31.5692C98.082 31.5792 98.4521 31.4391 98.7321 31.1891C99.1421 30.7691 99.342 30.1891 99.292 29.5991C99.322 29.0591 99.162 28.5291 98.832 28.0991C98.562 27.7791 98.1521 27.5991 97.7321 27.6191C97.2921 27.6091 96.862 27.7992 96.582 28.1392C95.992 29.0092 95.992 30.1591 96.572 31.0291C96.852 31.3791 97.272 31.5692 97.702 31.5692ZM97.7321 32.9791C96.7321 33.0491 95.762 32.6192 95.142 31.8292C94.672 31.1792 94.422 30.3792 94.452 29.5692C94.422 28.7392 94.692 27.9291 95.212 27.2791C95.832 26.5291 96.7621 26.1191 97.7321 26.1791C98.5521 26.1491 99.352 26.4391 99.972 26.9891C100.682 27.6591 101.062 28.6092 101.002 29.5792C101.042 30.4592 100.732 31.3291 100.162 31.9991C99.532 32.6591 98.6421 33.0291 97.7321 32.9791ZM103.512 32.8391H101.902V26.3091H104.962C105.672 26.2491 106.372 26.4391 106.952 26.8591C107.402 27.3591 107.622 28.0291 107.552 28.7091V32.8491H105.902V28.9291C105.942 28.5991 105.872 28.2791 105.722 27.9891C105.602 27.8391 105.302 27.7691 104.842 27.7691H103.532L103.512 32.8391ZM114.922 32.8391H113.222V27.6091H112.062V26.3091H113.222V25.9391C113.182 25.4391 113.252 24.9291 113.432 24.4691C113.652 24.1091 114.152 23.9391 114.922 23.9391H116.482V25.2291C116.032 25.2091 115.592 25.2291 115.142 25.2791C114.992 25.3491 114.922 25.6191 114.922 26.1091V26.3192H116.482V27.6191H114.922V32.8391ZM120.012 31.5692C120.392 31.5792 120.762 31.4391 121.042 31.1891C121.452 30.7691 121.652 30.1891 121.602 29.5991C121.632 29.0591 121.472 28.5291 121.142 28.0991C120.872 27.7791 120.462 27.5991 120.042 27.6191C119.602 27.6091 119.172 27.7992 118.892 28.1392C118.302 29.0092 118.292 30.1591 118.882 31.0291C119.152 31.3691 119.572 31.5692 120.012 31.5692ZM120.032 32.9791C119.032 33.0491 118.062 32.6192 117.442 31.8292C116.972 31.1792 116.722 30.3792 116.752 29.5692C116.722 28.7392 116.992 27.9291 117.512 27.2791C118.132 26.5291 119.062 26.1191 120.032 26.1791C120.852 26.1491 121.652 26.4391 122.272 26.9891C122.982 27.6591 123.362 28.6092 123.302 29.5792C123.342 30.4592 123.032 31.3291 122.462 31.9991C121.832 32.6591 120.942 33.0191 120.032 32.9791ZM125.812 32.8391H124.192V26.3091H126.932C127.682 26.3091 128.162 26.4691 128.372 26.7791C128.602 27.3691 128.702 28.0092 128.642 28.6392V29.0391H127.092V28.5191C127.092 28.0391 127.042 27.7591 126.932 27.6791C126.562 27.5591 126.182 27.5191 125.802 27.5591L125.812 32.8391ZM135.662 29.1392H138.182L136.902 25.7291L135.662 29.1392ZM134.362 32.8391H132.482L136.022 23.9291H137.902L141.502 32.8391H139.532L138.762 30.7091H135.092L134.362 32.8391ZM141.812 23.9291H143.502V32.8391H141.812V23.9291ZM144.792 29.3391V23.9391H146.562V29.2891C146.522 29.8391 146.622 30.3892 146.862 30.8892C147.252 31.3592 147.852 31.5991 148.452 31.5191C148.962 31.5691 149.472 31.4191 149.872 31.0891C150.232 30.5591 150.392 29.9291 150.332 29.2891V23.9391H152.092V29.3391C152.172 30.2591 151.952 31.1891 151.462 31.9691C150.922 32.6191 149.922 32.9492 148.462 32.9492C147.382 33.0692 146.302 32.7292 145.492 32.0092C144.952 31.2292 144.702 30.2791 144.792 29.3391ZM153.522 23.9291H155.212V32.8391H153.522V23.9291ZM158.802 31.5391H160.842V30.1791H158.922C158.272 30.1791 157.942 30.4091 157.942 30.8591C157.902 31.0891 158.002 31.3191 158.202 31.4391C158.382 31.5191 158.592 31.5591 158.802 31.5391ZM159.362 27.6591H156.632V26.3091H159.972C161.662 26.3091 162.512 27.1191 162.512 28.7491V32.8391H158.142C157.622 32.8691 157.112 32.6792 156.732 32.3192C156.372 31.9392 156.192 31.4291 156.212 30.9091C156.142 30.2591 156.422 29.6291 156.952 29.2391C157.482 28.9591 158.092 28.8392 158.692 28.8792H160.852C160.892 28.5292 160.772 28.1891 160.542 27.9291C160.172 27.7191 159.762 27.6291 159.362 27.6591Z" fill="#3D0177"/>
</svg>
